<?xml version="1.0" encoding="UTF-8"?>
<svg id="Layer_1" data-name="Layer 1" xmlns="http://www.w3.org/2000/svg" viewBox="0 0 465.96 371.78">
  <defs>
    <style>
      .cls-1 {
        fill: #000;
        stroke-width: 0px;
      }
    </style>
  </defs>
  <path class="cls-1" d="M130.74,99.05c.79-5.79,1.55-11.19,2.27-16.59,1.61-12.08,2.16-24.09-1.67-35.94-3.18-9.84-6.95-19.36-14.03-27.3-1.47-1.65-2.9-3.4-4.02-5.29-2.64-4.46-1.82-7.58,3.26-8.91,7.58-1.99,15.36-3.84,23.15-4.36,15.17-1.02,30.35-1.06,45.52,1.55,11.74,2.02,22.96,5.58,34.23,9.05,17.63,5.42,35.57,9.24,54.01,10.74,8.36.68,16.48-.64,24.55-2.56,5.66-1.35,11.35-2.56,17.04-3.76,6.71-1.41,13.41-1.03,20.17-.05,6.26.91,11.48,3.56,15.59,8.04,1.34,1.46,2.16,3.93,2.12,5.92-.2,8.23-.64,16.47-1.32,24.68-1.09,13.15-2.47,26.27-3.68,39.4-.15,1.59-.02,3.21-.02,5.31,2.39.24,4.38.6,6.37.6,12.21,0,24.42-.11,36.64-.15,3.38-.01,6.76.07,10.15.11,7.81.1,13.69,3.61,17.75,9.94,1.98,3.09,3.8,6.36,5.11,9.76,6.02,15.6,11.82,31.29,17.74,46.93,6.69,17.7,13.32,35.43,20.17,53.07,2.64,6.78,4.13,13.66,4.12,20.91-.07,33.9-.08,67.8-.13,101.71,0,2.56-.05,5.14-.3,7.69-1.27,12.81-9.62,20.78-22.78,21.49-8.06.43-16.15.63-24.23.64-109.77.08-219.54.14-329.31.1-20.29,0-40.59-.41-60.88-.77-3.74-.07-7.55-.4-11.17-1.25-8.3-1.96-14.05-6.79-15.96-15.22-.52-2.31-.99-4.7-1-7.06-.14-37.37-.31-74.75-.14-112.12.02-4.81,1.42-9.8,3.1-14.39,8.58-23.47,17.39-46.85,26.25-70.22,4.17-11,8.56-21.91,12.95-32.83,1.03-2.55,2.44-4.95,3.74-7.38,3.19-5.95,8.29-9.41,15.04-10.39,3.33-.48,6.73-.69,10.1-.7,17.67-.07,35.34-.03,53-.06,2.02,0,4.03-.2,6.49-.33ZM14.66,241.14c0,2.65,0,4.46,0,6.27-.05,30.96-.12,61.93-.14,92.89,0,2.74.09,5.5.38,8.23.65,6.09,1.66,7.29,7.92,7.86,6.91.62,13.87,1.05,20.81,1.06,82.87.09,165.74.08,248.62.1,41.72,0,83.44.08,125.15-.01,8.26-.02,16.53-.41,24.76-1.02,6.49-.48,7.75-2,8.13-8.21.17-2.74.18-5.49.18-8.24.03-30.6.04-61.19.05-91.79,0-1.1-.05-2.2-.01-3.3.09-2.74-1.29-4.02-4.06-4.1-5.82-.17-11.64-.58-17.45-.58-30.81-.05-61.61-.06-92.42.03-42.28.11-84.55.38-126.83.45-15.78.03-31.56-.46-47.34-.43-30.24.06-60.48.36-90.72.47-16.35.06-32.7-.07-49.05-.08-2.38,0-4.77.24-7.99.41ZM337.19,28.11c-3.46,0-6.05-.32-8.54.06-6.48.98-12.99,1.98-19.36,3.5-10.77,2.57-21.38,5.33-32.71,4.74-25.59-1.32-50.07-7.53-74.12-15.52-19.93-6.61-40.29-8.57-61.11-7.09-7.16.51-7.91,2.02-4.47,8.05,8.88,15.59,13.47,32.25,12.05,50.08-.8,10.01-2.23,20.05-4.45,29.84-3.14,13.88-4.44,27.8-4.38,41.97.06,13.28,4.74,24.6,13.22,34.78,6.42,7.71,14.54,12.16,24.6,12.79,15.55.97,31.12,1.94,46.69,2.21,12.56.22,25.16-.29,37.71-1.01,11.61-.66,23.19-1.9,34.76-3.13,6.53-.69,13.03-1.72,19.49-2.88,6.59-1.19,7.06-2.19,4.99-8.58-.9-2.79-1.91-5.56-2.76-8.37-6.46-21.53-17.61-40.77-30.63-59.05-6.32-8.87-13.07-17.44-19.59-26.17-.76-1.02-1.43-2.18-1.83-3.37-1.36-3.97-.48-6.18,3.35-8.15,2.49-1.28,5.07-2.41,7.7-3.38,15.6-5.77,29.68-14.11,42.78-24.06,6.03-4.59,12.23-9.11,16.58-17.28ZM346.34,112.8c-.26,1.32-.62,2.54-.72,3.79-.55,6.75-1.02,13.5-1.55,20.25q-.43,5.54,4.76,7.75c7.59,3.22,15.13,6.48,21.41,11.97,3.91,3.41,5.89,7.52,5.52,12.64-.39,5.38-2.49,9.81-7.15,13.08-11.51,8.06-24.54,12.71-38.12,15.83-23.14,5.33-46.8,6.93-70.46,7.72-16.89.56-33.83.44-50.73.04-26.15-.62-52.13-2.98-77.67-8.86-11.57-2.66-22.86-6.02-32.91-12.47-11.09-7.11-11.98-21.14-1.73-29.4,2.44-1.96,5.22-3.64,8.1-4.93,5.62-2.51,11.38-4.75,17.16-6.92,2.96-1.11,4.5-2.55,4.36-6.01-.19-4.55.43-9.13.71-13.7.15-2.56.34-5.12.46-7.68.1-2.17-.95-3.46-3.22-3.71-1.12-.12-2.24-.34-3.36-.32-17.66.21-35.31.38-52.96.73-5.82.12-9.57,2.89-11.62,8.58-5.22,14.52-10.97,28.85-16.4,43.3-6.53,17.37-12.99,34.77-19.39,52.19-.97,2.65-1.43,5.48-2.3,8.9,4.81,0,8.71,0,12.61,0,91.51-.02,183.02-.04,274.54-.06,44.91,0,89.82,0,134.73-.03,1.95,0,3.9-.31,6.12-.49-.35-1.97-.4-3.26-.81-4.43-3.85-11.1-7.58-22.25-11.7-33.26-8.5-22.7-17.33-45.29-25.77-68.02-1.72-4.64-4.33-6.83-9.42-6.83-16.34.01-32.68-.19-49.01-.26-1.09,0-2.18.37-3.46.6ZM327.73,150.4c.47-.02.93-.04,1.4-.06,2.58-7.84,1.01-16.13,1.86-24.15.89-8.36,1.12-16.79,1.86-25.17.73-8.19,1.84-16.35,2.63-24.54.8-8.26,1.95-16.52,1.43-25.92-2.4,1.72-4.05,2.81-5.59,4.03-2.04,1.61-3.92,3.42-6.01,4.96-10.52,7.76-21.82,14.22-34.06,19.08-1.97.78-3.85,1.81-5.82,2.75,8.18,11.64,16.48,22.3,23.47,33.73,6.96,11.36,12.6,23.49,18.81,35.29ZM137.7,184.39c-3.45-8.85-6.53-16.65-9.51-24.49-.97-2.53-2.81-2.83-4.96-1.98-5.38,2.14-10.86,4.15-16.01,6.76-5.47,2.78-5.5,6.43.09,9.13,6.36,3.07,13.08,5.47,19.75,7.89,3.26,1.18,6.75,1.73,10.63,2.7ZM341.12,179.95c7.28-.76,12.97-2.5,17.25-7.3,2.51-2.81,2.71-6.08.25-7.72-4.69-3.12-9.97-5.13-15.65-7.34-.38,2.37-.75,3.96-.86,5.55-.36,5.22-.62,10.45-.99,16.8Z"/>
</svg>